<svg width="619" height="383" viewBox="0 0 619 383" fill="none" xmlns="http://www.w3.org/2000/svg">
<path d="M618.258 0H22V381.69H618.258V0Z" fill="#61709B"/>
<path d="M617.758 0H21.5V381.69H617.758V0Z" fill="white"/>
<path d="M55.167 348.454C55.167 348.787 55.0681 349.113 54.8828 349.391C54.6976 349.668 54.4343 349.884 54.1262 350.012C53.8181 350.139 53.4791 350.173 53.1521 350.108C52.825 350.043 52.5246 349.882 52.2888 349.646C52.053 349.41 51.8924 349.11 51.8274 348.783C51.7623 348.456 51.7957 348.117 51.9233 347.809C52.0509 347.501 52.267 347.237 52.5443 347.052C52.8216 346.867 53.1475 346.768 53.481 346.768C53.9281 346.768 54.357 346.946 54.6732 347.262C54.9894 347.578 55.167 348.007 55.167 348.454Z" fill="url(#paint0_linear)"/>
<path opacity="0.45" d="M64.479 348.454C64.4788 348.787 64.3798 349.113 64.1945 349.39C64.0092 349.667 63.746 349.883 63.4381 350.01C63.1302 350.137 62.7914 350.171 62.4646 350.105C62.1378 350.04 61.8377 349.88 61.6022 349.644C61.3666 349.408 61.2062 349.108 61.1413 348.781C61.0763 348.455 61.1098 348.116 61.2373 347.808C61.3649 347.5 61.5809 347.237 61.8579 347.052C62.135 346.867 62.4608 346.768 62.794 346.768C63.0153 346.768 63.2345 346.812 63.439 346.896C63.6435 346.981 63.8293 347.105 63.9858 347.262C64.1423 347.418 64.2664 347.604 64.351 347.809C64.4356 348.013 64.4791 348.233 64.479 348.454V348.454Z" fill="url(#paint1_linear)"/>
<path opacity="0.25" d="M73.796 348.454C73.796 348.787 73.6971 349.113 73.5118 349.391C73.3266 349.668 73.0633 349.884 72.7552 350.012C72.4471 350.139 72.1081 350.173 71.7811 350.108C71.454 350.043 71.1536 349.882 70.9178 349.646C70.682 349.41 70.5214 349.11 70.4564 348.783C70.3913 348.456 70.4247 348.117 70.5523 347.809C70.6799 347.501 70.896 347.237 71.1733 347.052C71.4506 346.867 71.7765 346.768 72.11 346.768C72.5571 346.768 72.986 346.946 73.3022 347.262C73.6184 347.578 73.796 348.007 73.796 348.454Z" fill="url(#paint2_linear)"/>
<path d="M26.1547 348.322H388.015C399.804 348.322 378.703 354.478 371.79 361.391C364.877 368.304 365.28 371.18 348.076 376.411C311.076 387.662 295.248 365.639 236.508 374.311C211.481 378.004 179.563 385.061 154.391 381.311C133.191 378.153 128.042 363.694 112.017 362.522C87.4167 360.722 75.1467 362.49 52.7037 361.394C33.4737 360.45 -4.60227 348.322 26.1547 348.322Z" fill="url(#paint3_linear)"/>
<path d="M302.452 348.322C301.295 308.493 310.299 260.154 341.676 232.717C346.711 228.317 352.868 222.64 360.014 223.156C363.341 223.398 364.989 227.202 365.489 230.024C366.382 235.062 365.512 240.244 364.283 245.211C357.491 272.639 335.092 320.653 329.363 348.322" fill="url(#paint4_linear)"/>
<path d="M355.44 233.889C324.251 274.651 318.64 325.589 319.626 347.636" stroke="#92D0FF" stroke-miterlimit="10"/>
<path d="M329.363 348.322C333.563 322.546 337.975 301.495 352.748 279.958C358.825 271.098 370.532 260.148 379.848 261.058C389.843 262.03 382.748 277.131 376.821 288.402C368.802 303.471 363.265 319.734 360.421 336.565C361.245 331.513 364.751 317.128 375.108 310.736C378.15 308.858 385.631 307.762 385.631 313.987C385.631 324.927 374.998 338.064 372.338 348.327" fill="url(#paint5_linear)"/>
<path d="M376.79 269.007C367.209 281.169 348.105 323.253 345.761 347.558" stroke="#92D0FF" stroke-miterlimit="10"/>
<path d="M379.846 314.896C372.484 322.257 367.968 335.752 365.412 348.322" stroke="#92D0FF" stroke-miterlimit="10"/>
<path d="M93.1007 348.322C87.0257 298.069 91.4397 276.171 97.1607 262.252C99.8267 255.765 103.661 249.341 109.08 244.765C130.78 226.453 130.118 262.053 129.099 272.844C126.777 297.428 120.615 323.704 120.057 348.322" fill="url(#paint6_linear)"/>
<path d="M73.5468 348.322C72.8578 332.513 65.8017 317.09 56.8147 304.331C47.7767 291.501 35.3438 281.267 27.2058 267.789C22.8448 260.568 15.9468 249.215 26.1488 243.289C37.4608 236.724 54.0778 243.606 63.1758 251.113C73.0698 259.276 79.5757 270.84 84.9997 282.261C94.5867 302.433 96.5107 325.982 96.6597 348.317" fill="url(#paint7_linear)"/>
<path d="M75.7027 348.322C75.7477 332.231 67.5498 315.244 54.6028 302.675C46.1448 294.463 36.0257 286.767 24.4877 283.38C18.4967 281.621 1.75375 278.835 0.0747482 288.792C-0.561252 292.563 2.84276 299.654 10.9988 306.113C22.3378 315.092 53.6627 329.052 57.4407 348.322" fill="url(#paint8_linear)"/>
<path d="M7.79675 289.27C29.4968 295.17 59.7477 314.979 65.4967 347.934" stroke="#92D0FF" stroke-miterlimit="10"/>
<path d="M31.6407 249.554C53.3887 261.022 79.9127 296.839 82.8807 347.934" stroke="#92D0FF" stroke-miterlimit="10"/>
<path d="M117.375 244.47C105.15 274.158 103.021 315.835 103.731 347.934" stroke="#92D0FF" stroke-miterlimit="10"/>
<path d="M60.3647 348.322C58.4227 339.642 56.7167 330.595 51.5427 323.122C48.1577 318.231 41.2587 311.415 35.1167 311.522C30.5507 311.602 29.5167 315.993 30.0437 319.947C31.4367 330.311 37.1837 333.474 39.4147 344.68C38.3017 340.436 31.4517 325.735 25.4377 331.356C18.8227 337.537 28.6867 348.326 28.6867 348.326" fill="url(#paint9_linear)"/>
<path d="M28.0187 334.088C31.1647 337.688 35.2037 342.831 36.8307 348.322" stroke="#92D0FF" stroke-miterlimit="10"/>
<path d="M37.5257 317.878C45.8567 326.21 51.6747 343.791 53.1827 348.321" stroke="#92D0FF" stroke-miterlimit="10"/>
<path d="M236.703 266.39H349.773C358.171 266.389 366.224 263.053 372.163 257.115C378.101 251.177 381.437 243.123 381.437 234.725V234.725C381.437 230.566 380.618 226.449 379.027 222.607C377.436 218.765 375.103 215.275 372.163 212.334C369.223 209.394 365.732 207.061 361.89 205.47C358.049 203.879 353.931 203.06 349.773 203.06H108.373C103.917 203.06 99.644 201.29 96.4933 198.139C93.3427 194.988 91.5727 190.715 91.5727 186.26V186.26C91.5727 184.053 92.0073 181.869 92.8516 179.831C93.6958 177.792 94.9333 175.94 96.4933 174.38C98.0534 172.82 99.9054 171.583 101.944 170.739C103.982 169.894 106.167 169.46 108.373 169.46H311.209C313.162 169.46 315.096 169.075 316.9 168.328C318.705 167.58 320.344 166.485 321.725 165.103C323.106 163.722 324.202 162.083 324.949 160.278C325.696 158.474 326.081 156.54 326.081 154.587V154.587C326.081 152.634 325.696 150.7 324.949 148.895C324.202 147.091 323.106 145.451 321.725 144.07C320.344 142.689 318.705 141.594 316.9 140.846C315.096 140.099 313.162 139.715 311.209 139.715H125.596C123.426 139.714 121.345 138.852 119.811 137.318C118.277 135.784 117.415 133.703 117.415 131.533C117.415 130.458 117.626 129.394 118.037 128.402C118.448 127.409 119.051 126.507 119.81 125.747C120.57 124.987 121.472 124.384 122.465 123.973C123.457 123.562 124.521 123.35 125.596 123.35H179.563" stroke="#B3D3F4" stroke-miterlimit="10" stroke-dasharray="4 4"/>
<path d="M192.332 96.9127C188.713 96.3002 184.992 96.8601 181.714 98.5107C178.435 100.161 175.77 102.816 174.106 106.088C172.443 109.361 171.868 113.079 172.466 116.7C173.065 120.322 174.804 123.657 177.432 126.221L175.107 130.944L180.327 128.505C182.486 129.856 184.918 130.712 187.448 131.011C189.977 131.31 192.542 131.044 194.957 130.232C197.371 129.421 199.576 128.084 201.412 126.318C203.247 124.552 204.669 122.401 205.573 120.019C206.478 117.638 206.843 115.086 206.642 112.546C206.442 110.007 205.681 107.544 204.414 105.334C203.147 103.124 201.406 101.222 199.316 99.766C197.226 98.3099 194.839 97.3354 192.327 96.9127H192.332Z" fill="#F3FAFF"/>
<path d="M181.794 121.978L180.013 119.844C179.683 119.449 179.524 118.939 179.571 118.427C179.617 117.915 179.865 117.442 180.26 117.113L182.31 115.403C182.705 115.073 183.214 114.914 183.727 114.96C184.239 115.006 184.712 115.254 185.042 115.649C185.042 115.649 185.988 117.073 187.099 116.819C188.363 116.529 191.112 114.524 192.592 112.969C193.634 111.869 191.882 109.943 191.882 109.943C191.718 109.747 191.595 109.522 191.519 109.278C191.443 109.035 191.415 108.779 191.438 108.526C191.461 108.272 191.534 108.025 191.652 107.8C191.77 107.574 191.932 107.374 192.128 107.211L194.177 105.501C194.372 105.337 194.598 105.214 194.841 105.138C195.084 105.062 195.34 105.035 195.594 105.058C195.848 105.081 196.094 105.154 196.32 105.272C196.546 105.39 196.746 105.552 196.909 105.748L198.689 107.881C202.701 112.688 185.29 126.167 181.794 121.978Z" fill="#B3D3F4"/>
<path d="M267.402 123.027C269.955 120.578 271.012 118.06 274.528 117.273C275.258 117.178 275.968 116.962 276.628 116.635C278.34 115.571 277.99 113.145 278.375 111.224C279.132 107.438 284.075 105.046 287.701 106.711C289.218 107.411 290.594 108.694 292.273 108.58C295.63 108.351 295.228 104.211 297.521 101.85C299.688 99.6197 304.101 99.3277 306.921 100.742C308.847 101.696 310.536 103.068 311.865 104.758C313.23 106.526 313.165 109.258 314.177 111.208C315.136 113.092 317.435 113.908 318.437 115.764C318.891 116.509 319.167 117.351 319.241 118.221C319.316 119.091 319.187 119.967 318.866 120.779C317.433 124.219 313.226 126.702 309.414 126.702H257.9C257.9 126.702 264.558 125.754 267.402 123.027Z" fill="#F3FAFF"/>
<path d="M144.026 98.5637C141.868 96.4937 140.975 94.3637 138.003 93.7007C137.385 93.6205 136.786 93.4383 136.228 93.1617C134.781 92.2617 135.077 90.2117 134.752 88.5877C134.112 85.3877 129.932 83.3667 126.87 84.7737C125.587 85.3637 124.424 86.4497 123.005 86.3537C120.168 86.1607 120.505 82.6617 118.569 80.6657C116.738 78.7807 113.009 78.5347 110.628 79.7297C108.999 80.5351 107.571 81.6948 106.449 83.1237C105.295 84.6177 105.349 86.9237 104.496 88.5747C103.684 90.1677 101.741 90.8587 100.896 92.4257C100.511 93.0561 100.279 93.767 100.216 94.5026C100.153 95.2382 100.262 95.9783 100.534 96.6647C101.745 99.5707 105.301 101.67 108.523 101.67H152.059C152.059 101.67 146.432 100.869 144.026 98.5637Z" fill="#F3FAFF"/>
<path d="M344.845 145.578L314.587 129.386L322.555 105.735L359.382 124.802L344.845 145.578Z" fill="#CFE0F5"/>
<path d="M359.383 124.805L322.555 105.738L348.807 100.133L359.383 124.805Z" fill="#CFE0F5"/>
<path d="M356.57 120.999L327.09 105.728L314.19 130.63L343.671 145.901L356.57 120.999Z" fill="#FFF4E1"/>
<path d="M322.555 105.738L310.155 129.681L334.332 128.088L322.555 105.738Z" fill="#E6F1FC"/>
<path d="M359.383 124.805L346.983 148.748L334.332 128.088L359.383 124.805Z" fill="#E6F1FC"/>
<path d="M346.986 148.748L310.159 129.678L338.165 120.805L346.986 148.748Z" fill="#E6F1FC"/>
<path d="M346.986 148.748L310.159 129.678L336.411 124.072L346.986 148.748Z" fill="#E6F1FC"/>
<path d="M101.995 155.593L77.3398 161.766L69.9397 144.827L99.6297 136.962L101.995 155.593Z" fill="#CFE0F5"/>
<path d="M99.6317 136.963L69.9417 144.828L81.5537 128.691L99.6317 136.963Z" fill="#CFE0F5"/>
<path d="M96.1932 136.27L72.4258 142.565L77.7434 162.641L101.511 156.346L96.1932 136.27Z" fill="#FFF4E1"/>
<path d="M69.9427 144.827L75.0557 164.127L87.5247 151.227L69.9427 144.827Z" fill="#E6F1FC"/>
<path d="M99.6317 136.963L104.745 156.263L87.5237 151.225L99.6317 136.963Z" fill="#E6F1FC"/>
<path d="M104.745 156.266L75.0547 164.13L86.0037 145.33L104.745 156.266Z" fill="#E6F1FC"/>
<path d="M104.745 156.266L75.0547 164.13L86.6667 147.993L104.745 156.266Z" fill="#E6F1FC"/>
<path d="M199.023 121.878L199.938 120.45C199.763 119.693 199.675 118.92 199.676 118.144C199.66 117.384 199.803 116.629 200.094 115.927C200.324 115.802 200.429 117.209 200.527 117.155C200.625 117.101 201.36 114.337 201.773 114.375C201.982 114.395 201.264 117.075 201.264 117.075C201.264 117.075 201.972 114.167 202.299 114.268C202.626 114.369 201.847 117.143 201.847 117.143C201.847 117.143 202.53 114.507 202.805 114.593C203.08 114.679 202.365 117.247 202.365 117.247C202.365 117.247 203.043 114.962 203.193 115.091C203.423 115.291 203.164 116.862 202.508 119.086C202.393 119.471 201.84 120.744 201.808 120.847C201.776 120.95 201.152 123.247 201.152 123.247" fill="#FC8975"/>
<path d="M200.632 117.433C201.037 117.95 201.294 118.568 201.373 119.221C201.368 119.615 201.28 120.004 201.114 120.362" stroke="#CC6658" stroke-width="0.5" stroke-miterlimit="10"/>
<path d="M167.556 294.099C167.556 294.099 172.903 296.052 172.94 297.633C172.961 298.533 165.183 298.514 164.699 297.914C163.924 296.953 165.27 294.298 165.27 294.298L167.556 294.099Z" fill="#352E72"/>
<path d="M167.44 289.685L167.56 294.235C167.502 294.454 167.38 294.652 167.21 294.803C167.039 294.953 166.828 295.049 166.603 295.08C165.814 295.18 165.27 294.298 165.27 294.298L165.038 288.605" fill="#FC8975"/>
<path d="M171.095 188.378C171.095 188.378 174.007 206.046 172.544 239.944C171.544 263.098 168.418 291.085 167.272 291.116C166.546 291.132 165.82 291.095 165.1 291.007C165.1 291.007 157.809 257.458 157.312 238.563C156.549 209.469 148.875 202.796 152.201 187.676" fill="url(#paint10_linear)"/>
<path d="M168.024 289.278L167.809 291.278L164.609 291.366L164.459 289.366L168.024 289.278Z" fill="#75A1E9"/>
<path d="M151.063 294.552C151.063 294.552 156.41 296.505 156.447 298.086C156.467 298.992 148.69 298.968 148.206 298.367C147.43 297.406 148.777 294.751 148.777 294.751L151.063 294.552Z" fill="#352E72"/>
<path d="M150.947 290.138L151.067 294.688C151.009 294.907 150.887 295.105 150.717 295.256C150.546 295.406 150.335 295.502 150.11 295.533C149.321 295.633 148.777 294.751 148.777 294.751L148.545 289.058" fill="#FC8975"/>
<path d="M161.665 188.641C161.665 188.641 160.293 211.112 158.565 237.05C157.882 247.297 151.997 290.144 151.165 291.562L148.255 291.642C148.255 291.642 143.829 254.563 143.332 235.667C142.568 206.574 139.439 203.058 142.766 187.938" fill="url(#paint11_linear)"/>
<path d="M151.606 289.725L151.391 291.725L148.197 291.813L148.046 289.813L151.606 289.725Z" fill="#75A1E9"/>
<path d="M160.959 200.009C160.959 200.009 159.826 228.722 157.728 245.538" stroke="#4A578E" stroke-width="0.5" stroke-miterlimit="10"/>
<path d="M164.717 128.808C162.894 125.591 157.947 126.078 155.117 127.551C151.106 129.641 150.152 135.596 146.403 138.144C144.744 139.271 142.741 139.934 141.412 141.444C140.671 142.373 140.182 143.478 139.993 144.652C139.804 145.826 139.922 147.029 140.334 148.144C141.182 150.359 142.77 152.214 144.828 153.395C146.858 154.543 149.058 155.358 151.346 155.811C154.961 156.644 158.81 157.09 162.317 155.87C165.824 154.65 168.868 151.38 168.855 147.591C168.844 144.385 166.74 141.391 167.108 138.204" fill="#081466"/>
<path d="M199.305 120.79C199.305 120.79 189.729 134.528 187.539 137.655C184.132 142.518 170.139 143.46 162.648 147.891L157.459 148.455C154.994 148.955 146.488 155.01 145.693 157.449C143.878 163.015 142.047 168.662 141.722 174.52C141.612 176.506 141.676 178.498 141.742 180.486C141.836 183.364 141.929 186.241 142.023 189.119C142.01 189.311 142.057 189.503 142.157 189.668C142.297 189.813 142.484 189.906 142.685 189.93C152.085 192.099 161.873 190.93 171.437 189.753C171.777 189.746 172.107 189.631 172.377 189.423C172.636 189.094 172.76 188.679 172.722 188.262C172.773 186.421 172.668 184.581 172.593 182.741C172.276 174.774 172.557 166.795 173.433 158.871C176.396 157.012 188.649 153.165 192.75 147.443C198.231 139.831 201.416 130.808 201.928 121.443L199.305 120.79Z" fill="url(#paint12_linear)"/>
<path d="M162.648 147.891L162.462 141.318L159.55 141.718L157.463 148.386C157.835 148.829 158.321 149.164 158.868 149.355C159.415 149.545 160.003 149.584 160.571 149.468C161.041 149.464 161.497 149.308 161.871 149.024C162.245 148.739 162.517 148.342 162.648 147.891V147.891Z" fill="#FC8975"/>
<path d="M156.432 138.631C156.225 136.18 156.928 133.738 158.406 131.772C159.762 130.261 162.306 130.04 164.177 130.295C164.827 130.364 165.445 130.614 165.961 131.016C167.809 132.553 167.686 136.095 167.561 138.265C167.504 140.118 166.875 141.908 165.761 143.39C165.415 143.854 164.959 144.226 164.435 144.472C163.471 144.815 162.438 144.916 161.427 144.765C160.415 144.614 159.456 144.217 158.635 143.608C157.943 142.975 157.391 142.207 157.012 141.35C156.632 140.493 156.435 139.568 156.432 138.631Z" fill="#FC8975"/>
<path d="M155.603 140.707C154.919 141.027 153.855 141.259 153.323 140.507C152.897 139.907 153.268 139.007 153.423 138.366C153.908 136.291 154.509 134.245 155.223 132.238C155.548 131.189 156.023 130.192 156.632 129.278C157.892 127.543 161.473 126.737 163.578 126.937C165.892 126.784 169.578 130.554 167.561 134.937C167.261 133.863 166.837 133.955 166.047 133.049C165.263 133.795 164.244 134.244 163.165 134.321C161.765 134.448 160.148 134.129 159.122 135.109C158.07 136.109 158.288 137.909 157.522 139.155C157.048 139.849 156.381 140.389 155.603 140.707Z" fill="#081466"/>
<path d="M157.996 139.07C158.024 138.957 158.028 138.84 158.008 138.726C157.988 138.612 157.944 138.503 157.88 138.406C157.815 138.31 157.731 138.228 157.633 138.166C157.535 138.104 157.425 138.064 157.311 138.047C156.247 137.935 155.929 139.605 156.342 140.365C156.648 140.929 157.422 141.393 157.821 140.714" fill="#FC8975"/>
<path d="M159.781 142.988C159.517 142.965 159.256 142.922 158.999 142.86C158.2 142.679 157.492 142.218 157.005 141.56C156.818 141.319 156.706 141.028 156.685 140.724C156.684 140.691 156.695 140.66 156.717 140.636C156.739 140.612 156.769 140.598 156.802 140.597C156.818 140.596 156.834 140.599 156.849 140.605C156.864 140.61 156.877 140.619 156.889 140.63C156.9 140.641 156.91 140.654 156.916 140.669C156.922 140.684 156.926 140.7 156.926 140.716C156.946 140.971 157.041 141.214 157.2 141.416C157.654 142.028 158.312 142.457 159.056 142.625C159.787 142.775 160.537 142.817 161.281 142.748C161.297 142.747 161.313 142.749 161.328 142.755C161.344 142.76 161.358 142.768 161.37 142.779C161.382 142.79 161.391 142.803 161.398 142.818C161.405 142.832 161.409 142.848 161.41 142.864C161.411 142.88 161.409 142.897 161.403 142.912C161.398 142.927 161.39 142.941 161.379 142.953C161.368 142.965 161.355 142.975 161.34 142.982C161.326 142.989 161.31 142.993 161.294 142.994C160.79 143.029 160.284 143.027 159.781 142.988V142.988Z" fill="#081466"/>
<path d="M161.832 142.558C161.727 142.507 161.612 142.477 161.496 142.471C161.379 142.465 161.263 142.482 161.153 142.522C160.386 142.77 161.217 143.766 161.91 143.254C161.967 143.214 162.014 143.161 162.049 143.101C162.088 143 162.088 142.887 162.048 142.786C162.007 142.685 161.93 142.604 161.832 142.558Z" fill="#081466"/>
<path d="M154.671 134.744C154.836 132.94 155.476 131.211 156.527 129.736C157.876 128.013 159.678 126.594 161.408 126.594C162.147 126.561 162.884 126.677 163.578 126.935C161.76 127.37 160.116 128.343 158.861 129.727C157.436 131.253 156.624 133.251 156.581 135.339" fill="#75A1E9"/>
<path d="M159.043 137.591C159.174 138.474 158.951 139.373 158.424 140.093C157.896 140.813 157.106 141.296 156.225 141.438C155.785 141.462 155.344 141.398 154.928 141.252C154.513 141.106 154.13 140.879 153.802 140.584C153.474 140.29 153.207 139.933 153.017 139.536C152.827 139.138 152.717 138.707 152.694 138.267C152.563 137.384 152.785 136.485 153.312 135.765C153.84 135.045 154.629 134.561 155.511 134.42C155.951 134.396 156.392 134.459 156.807 134.605C157.223 134.751 157.606 134.978 157.934 135.273C158.262 135.567 158.529 135.924 158.719 136.321C158.909 136.719 159.019 137.15 159.043 137.591Z" fill="#75A1E9"/>
<path d="M157.537 137.9C157.636 138.49 157.501 139.096 157.158 139.587C156.816 140.078 156.295 140.415 155.707 140.526C155.11 140.542 154.53 140.322 154.095 139.912C153.661 139.503 153.406 138.938 153.387 138.341C153.287 137.751 153.423 137.145 153.765 136.654C154.107 136.163 154.629 135.826 155.217 135.715C155.814 135.698 156.393 135.919 156.828 136.328C157.262 136.738 157.517 137.303 157.537 137.9V137.9Z" fill="#2D4CBA"/>
<path d="M291.332 361.391C289.161 350.084 291.427 338.474 295.945 328.806C298.9 322.482 305.709 313.672 313.302 313.811C318.948 313.911 321.317 319.592 321.643 324.702C322.5 338.102 316.205 342.191 316.243 356.676C316.56 351.189 321.867 333.376 330.155 339.452C338.272 345.404 330.365 361.391 330.365 361.391" fill="url(#paint13_linear)"/>
<path d="M327.961 342.988C325.182 347.648 321.742 354.288 321.204 361.388" stroke="#92D0FF" stroke-miterlimit="10"/>
<path d="M312.832 322.034C305.171 332.806 302.742 355.534 302.105 361.391" stroke="#92D0FF" stroke-miterlimit="10"/>
<path d="M149.656 178.985C150.213 179.402 150.829 179.735 151.484 179.973C152.439 179.825 153.405 179.761 154.371 179.782C155.149 179.838 155.906 180.058 156.594 180.427C156.68 180.67 155.194 180.633 155.236 180.737C155.278 180.841 158.007 181.86 157.887 182.272C157.827 182.48 155.18 181.486 155.18 181.486C155.18 181.486 158.067 182.493 157.9 182.811C157.733 183.129 155 182.066 155 182.066C155 182.066 157.608 183.019 157.467 183.289C157.326 183.559 154.776 182.879 154.776 182.879C154.776 182.879 156.995 183.363 156.876 183.628C155.305 183.585 153.755 183.261 152.298 182.674C151.05 182.184 149.869 181.537 148.784 180.75" fill="#FC8975"/>
<path d="M150.608 159.448C148.208 163.111 142.641 167.34 139.568 169.933C141.332 172.325 151.312 179.776 151.312 179.776L150.385 181.997C150.385 181.997 131.365 178.585 130.759 169.191C130.397 163.571 137.51 155.291 143.034 151.401C148.21 147.755 154.269 147.16 157.459 148.455" fill="url(#paint14_linear)"/>
<path d="M289.867 200.415C287.767 199.553 284.784 196.998 285.129 195.544C285.276 194.924 286.753 196.608 287.168 196.193C287.44 195.921 287.217 194.674 286.46 194.068C285.703 193.462 284.134 192.349 284.519 191.962C284.904 191.575 288.747 192.432 289.608 193.734C290.364 195.181 290.874 196.745 291.117 198.36L292.71 200.415" fill="#FC8975"/>
<path d="M330.104 363.618C330.104 363.618 323.56 365.601 323.566 367.093C323.566 367.948 333.179 367.724 333.759 367.145C334.685 366.218 332.935 363.745 332.935 363.745L330.104 363.618Z" fill="#352E72"/>
<path d="M330.104 359.449V363.749C330.208 363.981 330.378 364.178 330.593 364.315C330.808 364.453 331.058 364.524 331.313 364.522C331.624 364.526 331.933 364.458 332.214 364.324C332.495 364.19 332.742 363.993 332.935 363.749L333.035 358.37" fill="#FC8975"/>
<path d="M322.299 263.941C322.299 263.941 319.276 280.689 322.183 312.641C324.169 334.465 328.942 360.796 330.358 360.796C331.253 360.792 332.148 360.739 333.038 360.636C333.038 360.636 340.959 328.786 340.959 310.936C340.959 283.46 350.223 276.964 345.623 262.781" fill="url(#paint15_linear)"/>
<path d="M329.37 359.078L329.7 360.965H333.65L333.772 359.078H329.37Z" fill="#75A1E9"/>
<path d="M350.498 363.618C350.498 363.618 343.955 365.601 343.961 367.093C343.961 367.948 353.573 367.724 354.152 367.145C355.079 366.218 353.329 363.745 353.329 363.745L350.498 363.618Z" fill="#352E72"/>
<path d="M350.498 359.449V363.749C350.602 363.981 350.772 364.178 350.987 364.316C351.202 364.453 351.453 364.525 351.708 364.522C352.019 364.525 352.327 364.458 352.608 364.324C352.889 364.19 353.136 363.993 353.329 363.749L353.429 358.37" fill="#FC8975"/>
<path d="M333.961 263.941C333.961 263.941 336.384 285.112 339.361 309.546C340.537 319.199 349.201 359.482 350.273 360.799H353.873C353.873 360.799 358.139 325.692 358.139 307.846C358.139 280.37 361.89 276.971 357.289 262.788" fill="url(#paint16_linear)"/>
<path d="M349.67 359.078L350 360.965H353.951L354.072 359.078H349.67Z" fill="#75A1E9"/>
<path d="M335.202 274.651C335.202 274.651 337.534 301.719 340.671 317.535" stroke="#4A578E" stroke-width="0.5" stroke-miterlimit="10"/>
<path d="M358.211 260.426C358.211 258.676 359.573 228.491 354.329 221.665C352.846 218.488 347.361 214.89 342.992 213.328C339.138 211.95 336.715 213.028 334.961 213.276C327.592 211.161 310.74 212.576 306.067 210.176C303.495 208.855 291.461 198.426 291.461 198.426L289.211 200.176C289.211 200.176 296.4 215.198 304.483 220.448C310.168 224.141 318.602 226.193 323.11 227.085C323.046 227.912 322.99 228.82 322.943 229.831C322.695 235.22 322.08 244.688 322.706 260.431C322.765 261.931 321.144 263.844 321.144 264.844C321.144 265.844 323.092 269.007 339.297 269.007C353.042 269.007 359.573 266.99 359.573 264.7C359.573 262.336 358.211 262.178 358.211 260.426Z" fill="url(#paint17_linear)"/>
<path opacity="0.75" d="M323.485 220.906C323.485 220.906 323.185 226.069 323.109 227.085" stroke="#707070" stroke-width="0.5" stroke-miterlimit="10"/>
<path d="M333.961 194.794C333.346 197.214 331.852 203.872 333.226 205.958C333.977 206.942 335.038 207.644 336.237 207.953C337.436 208.261 338.704 208.157 339.837 207.658C340.952 207.122 341.939 206.351 342.729 205.399C343.519 204.446 344.094 203.335 344.416 202.14C345.04 199.746 345.227 197.258 344.967 194.798" fill="#FC8975"/>
<path d="M336.604 203.603L335.652 211.673C335.652 211.673 335.998 213.934 337.232 214.797C338.169 214.72 339.073 214.408 339.859 213.892C340.645 213.375 341.289 212.669 341.732 211.839L340.823 201.446" fill="#FC8975"/>
<path d="M341.921 197.03C340.358 196.468 338.211 196.67 336.25 196.337C334.855 196.231 333.478 195.955 332.15 195.515C329.815 194.493 330.028 190.965 331.93 189.625C332.181 189.411 332.472 189.25 332.786 189.151C333.101 189.052 333.432 189.017 333.76 189.048C334.443 189.207 334.696 189.926 335.302 190.197C335.63 190.336 335.988 190.385 336.342 190.341C336.602 190.325 336.851 190.231 337.057 190.071C337.388 189.782 337.525 189.324 337.847 189.017C338.168 188.726 338.561 188.526 338.985 188.438C339.442 188.317 339.919 188.292 340.386 188.363C340.853 188.435 341.301 188.601 341.702 188.852C341.947 189.07 342.223 189.251 342.521 189.39C343.05 189.472 343.569 189.606 344.072 189.79C344.724 190.245 345.266 190.841 345.657 191.533C346.049 192.225 346.281 192.996 346.337 193.79C346.354 194.016 346.727 194.239 346.863 194.397C347.435 195.182 347.825 196.085 348.004 197.04C348.184 197.995 348.148 198.978 347.9 199.918C347.68 201.805 346.779 203.548 345.366 204.818C344.753 205.207 344.082 205.495 343.378 205.674C340.678 206.629 342.047 199.174 341.922 197.025" fill="#352E72"/>
<path d="M342.286 201.169C342.31 201.025 342.369 200.889 342.458 200.774C342.546 200.658 342.662 200.565 342.794 200.504C342.926 200.442 343.071 200.414 343.217 200.421C343.362 200.428 343.504 200.471 343.63 200.545C343.781 200.632 343.908 200.755 344.003 200.901C344.097 201.048 344.155 201.215 344.172 201.389C344.204 201.836 344.086 202.281 343.836 202.653C343.587 203.025 343.22 203.303 342.795 203.444C342.442 203.509 342.066 203.063 342.046 202.72" fill="#FC8975"/>
<path d="M339.449 206.002C339.713 205.981 339.974 205.939 340.232 205.878C341.027 205.704 341.734 205.252 342.226 204.604C342.412 204.37 342.524 204.085 342.546 203.787C342.546 203.771 342.544 203.755 342.538 203.74C342.532 203.725 342.524 203.712 342.513 203.7C342.502 203.688 342.489 203.679 342.475 203.672C342.46 203.666 342.445 203.662 342.429 203.662C342.413 203.661 342.397 203.664 342.382 203.669C342.367 203.675 342.354 203.683 342.342 203.694C342.33 203.705 342.321 203.718 342.314 203.733C342.308 203.747 342.304 203.763 342.304 203.779C342.284 204.029 342.189 204.268 342.031 204.463C341.572 205.064 340.914 205.483 340.175 205.645C339.443 205.792 338.693 205.832 337.95 205.765C337.933 205.763 337.916 205.764 337.901 205.769C337.885 205.773 337.87 205.781 337.857 205.792C337.844 205.802 337.834 205.816 337.826 205.83C337.819 205.845 337.814 205.862 337.814 205.878C337.813 205.895 337.815 205.911 337.821 205.927C337.827 205.943 337.836 205.957 337.847 205.969C337.859 205.981 337.873 205.99 337.888 205.997C337.904 206.003 337.92 206.006 337.937 206.006C338.44 206.04 338.945 206.038 339.449 206.002V206.002Z" fill="#081466"/>
<path d="M337.396 205.578C337.609 205.477 337.852 205.464 338.075 205.541C338.842 205.784 338.01 206.759 337.318 206.258C337.261 206.218 337.213 206.167 337.178 206.108C337.139 206.008 337.14 205.898 337.18 205.799C337.221 205.7 337.298 205.621 337.396 205.578V205.578Z" fill="#081466"/>
<path d="M344.559 197.942C344.392 196.171 343.751 194.478 342.703 193.042C341.354 191.358 339.551 189.97 337.822 189.97C337.083 189.938 336.346 190.051 335.652 190.304C337.461 190.725 339.103 191.675 340.37 193.034C341.788 194.513 342.601 196.47 342.649 198.52" fill="#75A1E9"/>
<path d="M340.187 200.726C340.171 201.348 340.336 201.961 340.663 202.49C340.99 203.02 341.465 203.442 342.028 203.706C342.592 203.97 343.22 204.064 343.836 203.977C344.452 203.889 345.029 203.624 345.497 203.213C345.964 202.803 346.302 202.265 346.469 201.665C346.635 201.066 346.624 200.43 346.435 199.838C346.246 199.245 345.888 198.72 345.406 198.327C344.923 197.934 344.337 197.69 343.718 197.626C342.839 197.57 341.974 197.865 341.312 198.446C340.65 199.027 340.245 199.847 340.187 200.726V200.726Z" fill="#75A1E9"/>
<path d="M341.693 201.027C341.702 201.431 341.827 201.823 342.054 202.158C342.28 202.492 342.598 202.754 342.97 202.913C343.342 203.071 343.751 203.118 344.149 203.05C344.548 202.981 344.917 202.799 345.215 202.525C345.512 202.252 345.724 201.898 345.825 201.507C345.926 201.116 345.913 200.704 345.786 200.32C345.659 199.937 345.424 199.598 345.109 199.345C344.795 199.091 344.414 198.934 344.012 198.892C343.422 198.87 342.847 199.082 342.413 199.482C341.978 199.882 341.72 200.437 341.693 201.027Z" fill="#A2C0ED"/>
<path d="M337.232 258.217H304.876L301.707 238.667C301.675 238.471 301.686 238.27 301.739 238.079C301.792 237.888 301.887 237.71 302.015 237.559C302.144 237.408 302.304 237.287 302.484 237.203C302.664 237.12 302.86 237.077 303.059 237.077H331.897C332.429 237.077 332.944 237.266 333.35 237.611C333.755 237.956 334.025 238.434 334.11 238.96L337.232 258.217Z" fill="#A2C0ED"/>
<path d="M336.295 258.217H303.938L300.769 238.667C300.737 238.471 300.748 238.27 300.802 238.079C300.855 237.888 300.949 237.71 301.078 237.559C301.207 237.408 301.367 237.287 301.547 237.203C301.727 237.12 301.923 237.077 302.122 237.077H330.961C331.493 237.077 332.007 237.267 332.413 237.612C332.818 237.957 333.087 238.434 333.173 238.96L336.295 258.217Z" fill="url(#paint18_linear)"/>
<path d="M320.198 247.131C319.844 245.482 318.59 244.317 317.398 244.525C316.206 244.733 315.524 246.241 315.878 247.891C316.232 249.541 317.486 250.705 318.678 250.496C319.87 250.287 320.551 248.778 320.198 247.131Z" fill="#ABD1FF"/>
<path opacity="0.75" d="M354.332 221.665C352.849 218.488 348.932 217.146 344.562 215.583L343.362 230.347C343.992 235.892 344.986 241.389 346.337 246.804L332.806 257.04L332.826 257.077C332.658 257.197 332.475 257.295 332.282 257.366C332.097 257.366 330.782 256.624 330.09 256.743C329.398 256.862 328.59 256.91 328.59 257.162C328.59 257.414 329.656 257.438 329.656 257.678C329.656 257.918 328.939 258.394 328.611 258.394C327.82 258.322 327.025 258.322 326.235 258.394C326.113 258.536 326.644 259.407 327.177 259.879C327.685 260.222 328.276 260.425 328.888 260.467C330.136 260.44 331.372 260.209 332.546 259.783C332.77 259.623 333.33 259.31 333.874 259.018L334.332 259.865C334.332 259.865 352.768 258.396 358.318 255.865C358.491 246.778 358.446 227.025 354.332 221.665Z" fill="url(#paint19_linear)"/>
<path d="M333.961 256.318C333.422 256.656 332.861 256.957 332.281 257.218C331.581 256.931 330.842 256.751 330.089 256.685C329.389 256.785 328.589 256.827 328.589 257.043C328.589 257.259 329.655 257.279 329.655 257.484C329.655 257.689 328.938 258.096 328.61 258.096C327.819 258.034 327.025 258.034 326.234 258.096C326.112 258.217 326.643 258.962 327.176 259.366C327.699 259.664 328.285 259.835 328.887 259.866C330.128 259.844 331.359 259.648 332.545 259.282C333.037 258.982 335.145 258.053 335.145 258.053" fill="#FC8975"/>
<path d="M342.992 213.328C342.992 213.328 352.461 213.928 356.961 222.676C361.461 231.424 360.055 250.076 357.305 252.823C354.555 255.57 333.605 258.962 333.605 258.962L332.805 257.04L347.555 247.823C347.555 247.823 342.961 232.423 342.961 226.176" fill="url(#paint20_linear)"/>
<path d="M337.225 214.797C337.924 215.718 338.474 216.745 338.852 217.839C341.998 216.802 342.985 213.328 342.985 213.328L341.73 211.839C341.73 211.839 339.258 214.396 337.225 214.797Z" fill="url(#paint21_linear)"/>
<path d="M337.232 214.797C336.532 215.535 335.994 216.41 335.652 217.368C334.852 216.568 334.261 213.679 334.341 213.328C334.749 212.754 335.186 212.201 335.652 211.673C335.849 212.85 336.4 213.94 337.232 214.797V214.797Z" fill="url(#paint22_linear)"/>
<path d="M61.7398 362.725C61.7398 362.725 55.1967 364.706 55.2027 366.199C55.2027 367.055 64.8157 366.83 65.3947 366.251C66.3217 365.324 64.6747 362.519 64.6747 362.519L61.7398 362.725Z" fill="#352E73"/>
<path d="M61.7397 358.555V362.855C61.8448 363.087 62.0151 363.283 62.23 363.42C62.4449 363.557 62.695 363.629 62.9497 363.626C63.261 363.63 63.5691 363.562 63.8503 363.429C64.1315 363.295 64.3783 363.099 64.5717 362.855L64.6718 357.475" fill="#FC8975"/>
<path d="M63.9137 240.412C59.5137 246.098 54.3507 262.187 54.3507 292.728C54.3507 314.313 61.3507 359.52 61.3507 359.52L65.3507 359.854C78.1407 279.054 73.8237 279.888 77.0167 265.52C79.0167 256.52 74.9537 233.82 74.9537 233.82" fill="url(#paint23_linear)"/>
<path opacity="0.35" d="M74.5027 291.151C74.5027 291.151 71.7437 275.821 71.7437 272.688C70.5502 279.328 70.5502 286.128 71.7437 292.769C72.6197 296.95 73.5297 301.036 73.5297 301.036L74.5027 291.151Z" fill="url(#paint24_linear)"/>
<path d="M61.1797 358.4V360.108C61.1797 360.108 65.3617 360.808 65.3617 360.552C65.3617 360.296 65.5508 358.586 65.5508 358.586L61.1797 358.4Z" fill="#75A1E9"/>
<path d="M96.6407 362.725C96.6407 362.725 103.184 364.706 103.178 366.199C103.178 367.055 93.5648 366.83 92.9858 366.251C92.0588 365.324 93.7067 362.519 93.7067 362.519L96.6407 362.725Z" fill="#352E73"/>
<path d="M95.9067 358.555L96.6407 362.855C96.5357 363.087 96.3653 363.283 96.1505 363.42C95.9356 363.557 95.6855 363.629 95.4307 363.626C95.1196 363.63 94.8116 363.562 94.5306 363.429C94.2496 363.295 94.003 363.099 93.8098 362.855L92.9727 357.475" fill="#FC8975"/>
<path d="M85.1927 237.849C89.5257 245.14 97.2087 260.171 97.2087 290.711C97.2087 312.297 96.6407 359.505 96.6407 359.505L93.2087 359.854C82.1597 329.003 72.9587 289.694 70.8007 266.795C69.9357 257.616 71.5887 233.824 71.5887 233.824" fill="url(#paint25_linear)"/>
<path opacity="0.35" d="M85.7027 238.719C81.0355 237.315 76.2892 236.188 71.4887 235.345C71.4777 235.523 71.4657 235.709 71.4527 235.913L63.9137 240.413C62.8171 241.902 61.9004 243.516 61.1827 245.221C64.2828 246.407 67.5388 247.137 70.8487 247.387C77.0877 247.944 84.8817 246.725 88.8817 244.856C87.7597 242.402 86.6667 240.384 85.7027 238.719Z" fill="url(#paint26_linear)"/>
<path d="M97.2087 358.078V359.786C97.2087 359.786 92.8197 360.486 92.8197 360.229C92.8197 359.972 92.6198 358.263 92.6198 358.263L97.2087 358.078Z" fill="#75A1E9"/>
<path d="M119.538 221.778L120.954 221.006C121.142 220.297 121.412 219.613 121.76 218.968C122.016 218.491 122.853 217.315 123.104 217.315C123.355 217.315 122.817 218.533 122.925 218.533C123.033 218.533 124.89 216.569 125.225 216.789C125.394 216.901 123.588 218.802 123.588 218.802C123.588 218.802 125.488 216.702 125.72 216.939C125.952 217.176 124.054 219.125 124.054 219.125C124.054 219.125 125.81 217.243 126.008 217.441C126.206 217.639 124.448 219.447 124.448 219.447C124.448 219.447 126.048 217.855 126.115 218.031C126.222 218.3 125.3 219.492 123.749 221.042C123.48 221.311 122.441 222.117 122.37 222.19C122.299 222.263 120.739 223.89 120.739 223.89" fill="#FC8975"/>
<path d="M122.889 218.81C123.004 219.422 122.946 220.054 122.722 220.636C122.542 220.962 122.293 221.246 121.993 221.467" stroke="#CC6658" stroke-width="0.5" stroke-miterlimit="10"/>
<path d="M26.9477 194.797L25.9577 193.525C26.0683 192.8 26.0935 192.065 26.0327 191.335C25.9897 190.618 25.7951 189.918 25.4617 189.282C25.2317 189.182 25.2377 190.513 25.1387 190.47C25.0397 190.427 24.1217 187.883 23.7277 187.952C23.8629 188.809 24.0978 189.648 24.4277 190.452C24.4277 190.452 23.5277 187.771 23.2177 187.891C22.9077 188.011 23.8717 190.562 23.8717 190.562C23.8717 190.562 23.0127 188.135 22.7537 188.237C22.4947 188.339 23.3817 190.7 23.3817 190.7C23.3817 190.7 22.5547 188.6 22.4187 188.736C22.2127 188.936 22.5827 190.401 23.3847 192.441C23.5237 192.795 24.1547 193.949 24.1917 194.041C24.2287 194.133 25.0067 196.253 25.0067 196.253" fill="#FC8975"/>
<path d="M25.0598 190.741C24.7094 191.256 24.5096 191.859 24.4827 192.482C24.5177 192.853 24.6327 193.212 24.8197 193.535" stroke="#CC6658" stroke-width="0.5" stroke-miterlimit="10"/>
<path d="M120.54 221.169C120.54 221.169 106.205 226.451 102.95 226.451C100.263 226.451 95.6857 219.191 89.3497 214.243C86.7714 212.286 83.9409 210.686 80.9348 209.487L68.9707 209.236C65.3347 209.319 61.7064 209.61 58.1037 210.108C52.1517 210.916 46.5717 210.65 43.9747 209.487C38.9497 207.236 26.3807 193.728 26.3807 193.728C25.9617 193.674 25.5359 193.721 25.139 193.866C24.7421 194.011 24.3857 194.249 24.0997 194.56C24.0997 195.228 30.5707 213.698 39.0997 219.229C45.3747 223.297 54.5167 223.963 60.2247 223.924V227.729C60.2247 229.604 57.9838 238.844 60.6328 241.492C63.0658 243.925 72.3497 244.229 75.9747 244.229C81.3497 244.229 86.8497 243.375 88.2247 241.492C88.9137 240.548 88.8097 236.342 88.5967 232.487C92.8967 235.193 96.7837 237.887 101.747 237.887C111.037 237.887 121.966 223.354 121.966 223.354L120.54 221.169Z" fill="url(#paint27_linear)"/>
<path opacity="0.75" d="M88.7188 235.167L88.5977 232.487L84.5827 228.422L88.7188 235.167Z" fill="url(#paint28_linear)"/>
<path opacity="0.75" d="M60.2257 223.924C60.2257 223.447 61.0327 218.844 61.0327 218.111C59.8277 220.711 57.9987 223.902 57.9987 223.902L60.2257 223.924Z" fill="url(#paint29_linear)"/>
<path d="M78.8917 187.972C82.2677 190.072 81.6917 194.379 83.0567 197.072C84.0437 199.016 85.5917 200.665 85.7367 202.972C85.8957 205.493 82.6187 206.672 80.8617 206.399C77.4237 205.866 74.4687 207.617 71.0057 207.199C68.6457 206.913 69.5357 205.729 67.9967 203.917C67.1 202.787 66.5728 201.408 66.4867 199.968C66.4051 198.536 66.5083 197.101 66.7937 195.696" fill="#F42A73"/>
<path d="M72.6477 202.578L71.9757 208.771L68.9757 209.235C68.9757 209.235 71.0757 213.016 74.4037 213.016C77.7317 213.016 80.9397 209.486 80.9397 209.486L77.6837 208.478L76.4457 199.778" fill="#FC8975"/>
<path d="M67.7247 192.478C67.4218 194.539 67.4434 196.635 67.7887 198.69C67.9708 199.717 68.3883 200.687 69.0086 201.526C69.6289 202.364 70.435 203.047 71.3637 203.522C72.2416 203.868 73.1752 204.051 74.1188 204.063C75.7061 204.24 77.3056 203.859 78.6427 202.986C79.3389 202.375 79.8774 201.606 80.2124 200.743C80.5474 199.879 80.6689 198.948 80.5667 198.028C80.3451 196.191 79.8242 194.403 79.0248 192.735C78.3674 191.145 77.7097 189.556 77.0517 187.968" fill="#FC8975"/>
<path d="M60.0108 200.727C59.2478 201.445 58.7053 202.366 58.4468 203.382C58.4135 203.898 58.5387 204.411 58.8058 204.854C59.0728 205.297 59.4688 205.647 59.9407 205.859C60.7413 206.139 61.6012 206.204 62.4348 206.048C63.3981 205.961 64.3686 206 65.3218 206.164C66.1308 206.323 66.9047 206.617 67.6977 206.843C68.8595 207.213 70.0894 207.32 71.2977 207.156C71.4028 207.151 71.5055 207.123 71.598 207.073C71.6906 207.024 71.7705 206.953 71.8317 206.868C71.8637 206.756 71.8706 206.639 71.8519 206.525C71.8332 206.411 71.7894 206.302 71.7237 206.207C71.0814 204.592 70.8705 202.838 71.1117 201.118C71.1666 200.231 71.3083 199.351 71.5347 198.492C71.7536 197.779 72.0247 197.084 72.3457 196.411C72.9347 195.117 73.6688 193.876 74.2268 192.573C74.7848 191.27 75.1117 189.273 76.9267 189.532C78.0967 189.702 78.5938 191.589 79.3728 192.738C80.5278 191.418 81.8278 190.618 79.3658 187.491C78.1338 185.926 76.0347 186.012 74.1727 186.352C73.1267 186.282 73.1998 185.872 72.1538 185.801C70.3758 185.773 68.6262 186.249 67.107 187.173C65.5878 188.097 64.3609 189.432 63.5678 191.024C61.9028 194.52 62.2908 197.915 60.0108 200.727Z" fill="#F42A73"/>
<path d="M71.7397 201.83C71.4763 201.807 71.2149 201.765 70.9577 201.704C70.1626 201.529 69.4556 201.077 68.9637 200.429C68.7775 200.195 68.6663 199.91 68.6447 199.612C68.6463 199.581 68.6592 199.553 68.6808 199.532C68.7025 199.51 68.7313 199.498 68.7616 199.497C68.7919 199.496 68.8215 199.506 68.8445 199.526C68.8674 199.546 68.8822 199.574 68.8857 199.604C68.9064 199.854 69.0015 200.092 69.1588 200.288C69.6173 200.89 70.2753 201.309 71.0147 201.47C71.7468 201.617 72.4962 201.657 73.2397 201.59C73.2718 201.588 73.3033 201.599 73.3272 201.621C73.3511 201.642 73.3655 201.672 73.3672 201.704C73.369 201.736 73.3579 201.768 73.3364 201.792C73.3149 201.816 73.2848 201.83 73.2527 201.832C72.749 201.867 72.2434 201.866 71.7397 201.83V201.83Z" fill="#081466"/>
<path d="M73.7927 201.409C73.5798 201.308 73.3361 201.295 73.1137 201.373C72.3477 201.616 73.1777 202.59 73.8707 202.089C73.9278 202.049 73.9756 201.998 74.0107 201.939C74.05 201.839 74.0493 201.729 74.0086 201.63C73.968 201.531 73.8906 201.452 73.7927 201.409V201.409Z" fill="#081466"/>
<path d="M66.6317 193.77C66.7982 191.999 67.4394 190.306 68.4877 188.87C69.8367 187.185 71.6387 185.798 73.3687 185.798C74.1069 185.766 74.8442 185.879 75.5387 186.131C73.7299 186.551 72.0876 187.502 70.8217 188.861C69.4025 190.34 68.5891 192.298 68.5417 194.348" fill="#081466"/>
<path d="M71.0017 196.553C71.0178 197.175 70.8522 197.788 70.5251 198.317C70.1981 198.847 69.7238 199.269 69.1603 199.533C68.5968 199.797 67.9685 199.891 67.3525 199.804C66.7364 199.716 66.1592 199.451 65.6916 199.04C65.224 198.63 64.8862 198.092 64.7196 197.492C64.553 196.893 64.5649 196.257 64.7537 195.665C64.9425 195.072 65.3 194.547 65.7826 194.154C66.2652 193.761 66.8518 193.517 67.4707 193.453C68.3498 193.397 69.2151 193.692 69.8771 194.273C70.539 194.854 70.9434 195.674 71.0017 196.553V196.553Z" fill="#081466"/>
<path d="M69.4957 196.855C69.4866 197.259 69.3612 197.651 69.1345 197.986C68.9078 198.32 68.5895 198.582 68.2177 198.74C67.846 198.898 67.4365 198.945 67.0385 198.876C66.6404 198.808 66.2707 198.625 65.9735 198.352C65.6764 198.078 65.4645 197.725 65.3633 197.333C65.2621 196.942 65.2757 196.53 65.4027 196.147C65.5297 195.764 65.7647 195.425 66.0793 195.171C66.394 194.918 66.775 194.761 67.1767 194.719C67.7669 194.696 68.342 194.909 68.7765 195.309C69.2109 195.709 69.4695 196.265 69.4957 196.855V196.855Z" fill="#2D4CBA"/>
<path d="M267.144 114.328L262.121 116.428C261.993 116.481 261.881 116.566 261.795 116.675C261.709 116.784 261.653 116.913 261.631 117.05C261.61 117.187 261.623 117.328 261.671 117.458C261.719 117.588 261.799 117.703 261.905 117.794L265.505 120.894C265.609 120.983 265.733 121.045 265.868 121.074C266.002 121.102 266.141 121.096 266.272 121.056C266.403 121.016 266.522 120.944 266.618 120.845C266.713 120.747 266.783 120.626 266.819 120.494L268.241 115.294C268.281 115.147 268.28 114.991 268.236 114.845C268.192 114.699 268.109 114.569 267.994 114.468C267.88 114.367 267.739 114.301 267.589 114.276C267.439 114.251 267.284 114.269 267.144 114.328V114.328Z" stroke="#CFE0F5" stroke-miterlimit="10"/>
<path d="M51.1737 179.937L52.6467 185.179C52.6842 185.312 52.7552 185.434 52.8529 185.532C52.9505 185.63 53.0717 185.702 53.2048 185.74C53.3379 185.778 53.4786 185.782 53.6136 185.75C53.7485 185.719 53.8732 185.654 53.9757 185.561L57.4917 182.361C57.5934 182.269 57.67 182.152 57.7144 182.022C57.7589 181.893 57.7697 181.754 57.746 181.619C57.7222 181.483 57.6646 181.357 57.5785 181.25C57.4925 181.143 57.3807 181.06 57.2537 181.008L52.2647 178.961C52.1234 178.903 51.9686 178.885 51.818 178.911C51.6673 178.937 51.527 179.005 51.4132 179.107C51.2993 179.208 51.2164 179.34 51.174 179.487C51.1317 179.634 51.1316 179.79 51.1737 179.937V179.937Z" stroke="#CFE0F5" stroke-miterlimit="10"/>
<path d="M370.756 242.87L374.615 239.028C374.713 238.93 374.785 238.809 374.823 238.676C374.861 238.543 374.865 238.402 374.833 238.267C374.802 238.132 374.736 238.008 374.643 237.905C374.55 237.803 374.432 237.726 374.301 237.682L369.801 236.17C369.671 236.126 369.532 236.116 369.397 236.14C369.262 236.164 369.135 236.223 369.028 236.309C368.922 236.396 368.839 236.508 368.787 236.635C368.736 236.762 368.717 236.9 368.734 237.037L369.379 242.391C369.397 242.541 369.458 242.683 369.553 242.801C369.649 242.919 369.775 243.008 369.918 243.058C370.062 243.108 370.216 243.117 370.364 243.083C370.512 243.05 370.648 242.976 370.756 242.87V242.87Z" stroke="#CFE0F5" stroke-miterlimit="10"/>
<path d="M352.676 183.356L354.094 188.613C354.129 188.747 354.199 188.87 354.295 188.97C354.392 189.07 354.512 189.143 354.645 189.183C354.778 189.223 354.919 189.229 355.055 189.199C355.19 189.169 355.316 189.105 355.42 189.013L358.968 185.854C359.07 185.763 359.148 185.647 359.194 185.518C359.24 185.388 359.253 185.25 359.231 185.114C359.208 184.979 359.152 184.851 359.067 184.743C358.982 184.636 358.871 184.551 358.745 184.498L353.777 182.398C353.637 182.338 353.483 182.32 353.333 182.343C353.182 182.367 353.042 182.433 352.927 182.533C352.812 182.633 352.728 182.763 352.683 182.908C352.639 183.054 352.636 183.209 352.676 183.356Z" stroke="#CFE0F5" stroke-miterlimit="10"/>
<path d="M336.072 172.579L333.601 174.468L335.49 176.939L337.961 175.05L336.072 172.579Z" fill="#CFE0F5"/>
<path d="M313.641 151.215L310.531 151.354L310.669 154.464L313.779 154.325L313.641 151.215Z" fill="#CFE0F5"/>
<path d="M113.721 191.519L110.821 192.65L111.951 195.55L114.852 194.42L113.721 191.519Z" fill="#CFE0F5"/>
<path d="M144.645 116.813L141.739 115.699L140.624 118.605L143.531 119.72L144.645 116.813Z" fill="#CFE0F5"/>
<path d="M22.2547 271.064L19.1447 271.203L19.2835 274.313L22.3934 274.174L22.2547 271.064Z" fill="#CFE0F5"/>
<path d="M469.232 361.736V361.059C469.309 361.127 469.401 361.189 469.508 361.244C469.618 361.298 469.732 361.345 469.85 361.384C469.971 361.42 470.092 361.449 470.213 361.469C470.333 361.49 470.445 361.5 470.548 361.5C470.901 361.5 471.164 361.435 471.337 361.305C471.513 361.173 471.6 360.984 471.6 360.738C471.6 360.606 471.571 360.49 471.511 360.392C471.454 360.295 471.375 360.206 471.272 360.126C471.17 360.044 471.048 359.966 470.906 359.893C470.767 359.818 470.617 359.74 470.455 359.658C470.284 359.571 470.125 359.483 469.977 359.394C469.829 359.306 469.7 359.208 469.59 359.1C469.481 358.993 469.395 358.873 469.331 358.738C469.269 358.601 469.238 358.442 469.238 358.26C469.238 358.036 469.287 357.843 469.385 357.679C469.483 357.512 469.612 357.376 469.772 357.268C469.931 357.161 470.112 357.082 470.315 357.029C470.52 356.977 470.729 356.951 470.941 356.951C471.424 356.951 471.776 357.009 471.997 357.125V357.771C471.707 357.57 471.336 357.47 470.882 357.47C470.757 357.47 470.632 357.484 470.507 357.511C470.381 357.536 470.27 357.578 470.172 357.638C470.074 357.697 469.994 357.773 469.932 357.867C469.871 357.96 469.84 358.074 469.84 358.208C469.84 358.334 469.863 358.442 469.908 358.533C469.956 358.624 470.026 358.707 470.117 358.783C470.208 358.858 470.319 358.931 470.448 359.001C470.581 359.072 470.732 359.149 470.903 359.234C471.078 359.32 471.245 359.412 471.402 359.507C471.559 359.603 471.697 359.709 471.816 359.825C471.934 359.941 472.027 360.07 472.096 360.211C472.166 360.353 472.202 360.514 472.202 360.697C472.202 360.938 472.154 361.143 472.058 361.312C471.965 361.478 471.837 361.614 471.675 361.719C471.516 361.823 471.331 361.899 471.122 361.944C470.912 361.992 470.691 362.016 470.459 362.016C470.381 362.016 470.285 362.009 470.172 361.996C470.058 361.984 469.941 361.966 469.823 361.941C469.704 361.918 469.592 361.89 469.485 361.855C469.38 361.819 469.295 361.779 469.232 361.736ZM475.777 361.934H473.179V357.033H475.668V357.552H473.754V359.183H475.524V359.699H473.754V361.414H475.777V361.934ZM480.672 361.934H479.967L477.445 358.027C477.381 357.929 477.329 357.827 477.288 357.72H477.267C477.285 357.824 477.295 358.049 477.295 358.393V361.934H476.72V357.033H477.465L479.92 360.878C480.022 361.037 480.088 361.147 480.118 361.206H480.132C480.109 361.065 480.097 360.824 480.097 360.485V357.033H480.672V361.934ZM481.957 361.934V357.033H483.31C485.037 357.033 485.901 357.829 485.901 359.422C485.901 360.178 485.661 360.787 485.18 361.247C484.701 361.705 484.06 361.934 483.256 361.934H481.957ZM482.531 357.552V361.414H483.262C483.905 361.414 484.405 361.242 484.763 360.898C485.121 360.554 485.299 360.067 485.299 359.435C485.299 358.18 484.632 357.552 483.297 357.552H482.531Z" fill="white"/>
<defs>
<linearGradient id="paint0_linear" x1="53.481" y1="350.14" x2="53.481" y2="346.768" gradientUnits="userSpaceOnUse">
<stop stop-color="#5382EC"/>
<stop offset="1" stop-color="#78BFFF"/>
</linearGradient>
<linearGradient id="paint1_linear" x1="62.794" y1="350.138" x2="62.794" y2="346.768" gradientUnits="userSpaceOnUse">
<stop stop-color="#5382EC"/>
<stop offset="1" stop-color="#78BFFF"/>
</linearGradient>
<linearGradient id="paint2_linear" x1="72.11" y1="350.14" x2="72.11" y2="346.768" gradientUnits="userSpaceOnUse">
<stop stop-color="#5382EC"/>
<stop offset="1" stop-color="#78BFFF"/>
</linearGradient>
<linearGradient id="paint3_linear" x1="203.048" y1="382.377" x2="203.048" y2="348.322" gradientUnits="userSpaceOnUse">
<stop offset="0.005" stop-color="#FCF5F1"/>
<stop offset="0.477" stop-color="#FCEEEC"/>
<stop offset="1" stop-color="#FCE1E3"/>
</linearGradient>
<linearGradient id="paint4_linear" x1="334.105" y1="348.322" x2="334.105" y2="223.123" gradientUnits="userSpaceOnUse">
<stop stop-color="#466DE5"/>
<stop offset="1" stop-color="#78BFFF"/>
</linearGradient>
<linearGradient id="paint5_linear" x1="357.497" y1="348.327" x2="357.497" y2="261.005" gradientUnits="userSpaceOnUse">
<stop stop-color="#466DE5"/>
<stop offset="1" stop-color="#78BFFF"/>
</linearGradient>
<linearGradient id="paint6_linear" x1="141.048" y1="327.342" x2="77.2756" y2="318.996" gradientUnits="userSpaceOnUse">
<stop stop-color="#466DE5"/>
<stop offset="1" stop-color="#78BFFF"/>
</linearGradient>
<linearGradient id="paint7_linear" x1="58.7541" y1="348.322" x2="58.7541" y2="240.655" gradientUnits="userSpaceOnUse">
<stop stop-color="#466DE5"/>
<stop offset="1" stop-color="#78BFFF"/>
</linearGradient>
<linearGradient id="paint8_linear" x1="37.6244" y1="347.455" x2="37.6244" y2="283.835" gradientUnits="userSpaceOnUse">
<stop stop-color="#466DE5"/>
<stop offset="1" stop-color="#78BFFF"/>
</linearGradient>
<linearGradient id="paint9_linear" x1="33.9456" y1="351.344" x2="51.9158" y2="319.485" gradientUnits="userSpaceOnUse">
<stop stop-color="#466DE5"/>
<stop offset="1" stop-color="#78BFFF"/>
</linearGradient>
<linearGradient id="paint10_linear" x1="196.246" y1="292.257" x2="196.246" y2="188.4" gradientUnits="userSpaceOnUse">
<stop stop-color="#29225E"/>
<stop offset="1" stop-color="#3F368C"/>
</linearGradient>
<linearGradient id="paint11_linear" x1="208.117" y1="292.264" x2="208.117" y2="188.456" gradientUnits="userSpaceOnUse">
<stop stop-color="#29225E"/>
<stop offset="1" stop-color="#3F368C"/>
</linearGradient>
<linearGradient id="paint12_linear" x1="169.324" y1="163.002" x2="218.636" y2="145.72" gradientUnits="userSpaceOnUse">
<stop stop-color="#FCC73C"/>
<stop offset="1" stop-color="#FC7A3C"/>
</linearGradient>
<linearGradient id="paint13_linear" x1="-210.817" y1="364.674" x2="-184.368" y2="326.668" gradientUnits="userSpaceOnUse">
<stop stop-color="#466DE5"/>
<stop offset="1" stop-color="#78BFFF"/>
</linearGradient>
<linearGradient id="paint14_linear" x1="155.322" y1="158.353" x2="123.305" y2="176.849" gradientUnits="userSpaceOnUse">
<stop stop-color="#FCC73C"/>
<stop offset="1" stop-color="#FC7A3C"/>
</linearGradient>
<linearGradient id="paint15_linear" x1="333.912" y1="360.796" x2="333.912" y2="262.781" gradientUnits="userSpaceOnUse">
<stop stop-color="#29225E"/>
<stop offset="1" stop-color="#3F368C"/>
</linearGradient>
<linearGradient id="paint16_linear" x1="346.77" y1="360.799" x2="346.77" y2="262.788" gradientUnits="userSpaceOnUse">
<stop stop-color="#29225E"/>
<stop offset="1" stop-color="#3F368C"/>
</linearGradient>
<linearGradient id="paint17_linear" x1="324.392" y1="228.987" x2="324.392" y2="266.889" gradientUnits="userSpaceOnUse">
<stop stop-color="#FCC73C"/>
<stop offset="1" stop-color="#FC7A3C"/>
</linearGradient>
<linearGradient id="paint18_linear" x1="332.385" y1="262.128" x2="320.496" y2="228.506" gradientUnits="userSpaceOnUse">
<stop stop-color="#5789EE"/>
<stop offset="1" stop-color="#78BFFF"/>
</linearGradient>
<linearGradient id="paint19_linear" x1="326.217" y1="238.025" x2="358.368" y2="238.025" gradientUnits="userSpaceOnUse">
<stop stop-color="#FCC73C"/>
<stop offset="1" stop-color="#FC7A3C"/>
</linearGradient>
<linearGradient id="paint20_linear" x1="346.335" y1="229.026" x2="346.335" y2="261.426" gradientUnits="userSpaceOnUse">
<stop stop-color="#FCC73C"/>
<stop offset="1" stop-color="#FC7A3C"/>
</linearGradient>
<linearGradient id="paint21_linear" x1="340.105" y1="217.839" x2="340.105" y2="211.839" gradientUnits="userSpaceOnUse">
<stop stop-color="#FCAE3C"/>
<stop offset="1" stop-color="#FC7A3C"/>
</linearGradient>
<linearGradient id="paint22_linear" x1="335.783" y1="217.368" x2="335.783" y2="211.673" gradientUnits="userSpaceOnUse">
<stop stop-color="#FCAE3C"/>
<stop offset="1" stop-color="#FC7A3C"/>
</linearGradient>
<linearGradient id="paint23_linear" x1="65.9605" y1="359.854" x2="65.9605" y2="233.82" gradientUnits="userSpaceOnUse">
<stop stop-color="#29225E"/>
<stop offset="1" stop-color="#3F368C"/>
</linearGradient>
<linearGradient id="paint24_linear" x1="72.6757" y1="301.036" x2="72.6757" y2="272.688" gradientUnits="userSpaceOnUse">
<stop stop-color="#29225E"/>
<stop offset="1" stop-color="#3F368C"/>
</linearGradient>
<linearGradient id="paint25_linear" x1="83.8795" y1="359.854" x2="83.8795" y2="233.824" gradientUnits="userSpaceOnUse">
<stop stop-color="#29225E"/>
<stop offset="1" stop-color="#3F368C"/>
</linearGradient>
<linearGradient id="paint26_linear" x1="75.0322" y1="247.522" x2="75.0322" y2="235.345" gradientUnits="userSpaceOnUse">
<stop stop-color="#29225E"/>
<stop offset="1" stop-color="#3F368C"/>
</linearGradient>
<linearGradient id="paint27_linear" x1="73.0327" y1="209.722" x2="73.0327" y2="244.987" gradientUnits="userSpaceOnUse">
<stop stop-color="#FCC73C"/>
<stop offset="1" stop-color="#FC7A3C"/>
</linearGradient>
<linearGradient id="paint28_linear" x1="86.6507" y1="230.56" x2="86.6507" y2="235.268" gradientUnits="userSpaceOnUse">
<stop stop-color="#FCC73C"/>
<stop offset="1" stop-color="#FC7A3C"/>
</linearGradient>
<linearGradient id="paint29_linear" x1="57.9987" y1="221.017" x2="61.0327" y2="221.017" gradientUnits="userSpaceOnUse">
<stop stop-color="#FCC73C"/>
<stop offset="1" stop-color="#FC7A3C"/>
</linearGradient>
</defs>
</svg>
